<svg width="24" height="25" viewBox="0 0 24 25" fill="none" xmlns="http://www.w3.org/2000/svg">
<path d="M13 5.53015C13 6.63472 10.5376 7.53015 7.5 7.53015C4.46243 7.53015 2 6.63472 2 5.53015M13 5.53015C13 4.42558 10.5376 3.53015 7.5 3.53015C4.46243 3.53015 2 4.42558 2 5.53015M13 5.53015V7.03015M2 5.53015V17.5302C2 18.6347 4.46243 19.5302 7.5 19.5302M7.5 11.5302C7.33145 11.5302 7.16468 11.5274 7 11.522C4.19675 11.4301 2 10.5734 2 9.53015M7.5 15.5302C4.46243 15.5302 2 14.6347 2 13.5302M22 12.0302C22 13.1347 19.5376 14.0302 16.5 14.0302C13.4624 14.0302 11 13.1347 11 12.0302M22 12.0302C22 10.9256 19.5376 10.0302 16.5 10.0302C13.4624 10.0302 11 10.9256 11 12.0302M22 12.0302V19.5302C22 20.6347 19.5376 21.5302 16.5 21.5302C13.4624 21.5302 11 20.6347 11 19.5302V12.0302M22 15.7802C22 16.8847 19.5376 17.7802 16.5 17.7802C13.4624 17.7802 11 16.8847 11 15.7802" stroke="#5D5D5D" stroke-width="1.6" stroke-linecap="round" stroke-linejoin="round"/>
</svg>
