<svg width="17" height="17" viewBox="0 0 17 17" fill="none" xmlns="http://www.w3.org/2000/svg">
<path d="M12.5 7.19683L9.83331 4.53016M2.16663 14.8635L4.42287 14.6128C4.69853 14.5822 4.83636 14.5669 4.96519 14.5252C5.07949 14.4882 5.18826 14.4359 5.28855 14.3697C5.4016 14.2952 5.49966 14.1971 5.69578 14.001L14.5 5.19683C15.2364 4.46045 15.2364 3.26654 14.5 2.53016C13.7636 1.79378 12.5697 1.79378 11.8333 2.53016L3.02911 11.3343C2.83299 11.5305 2.73493 11.6285 2.66038 11.7416C2.59425 11.8419 2.54197 11.9506 2.50497 12.0649C2.46326 12.1938 2.44795 12.3316 2.41732 12.6073L2.16663 14.8635Z" stroke="white" stroke-width="1.6" stroke-linecap="round" stroke-linejoin="round"/>
</svg>
