<svg width="48" height="20" viewBox="0 0 48 20" fill="none" xmlns="http://www.w3.org/2000/svg">
<path d="M4.16 11.4323H8.64V14.0723H0.74V0.0322652H4.16V11.4323ZM15.3513 14.2323C14.2579 14.2323 13.2713 13.9989 12.3913 13.5323C11.5246 13.0656 10.8379 12.3989 10.3313 11.5323C9.83792 10.6656 9.59125 9.65227 9.59125 8.49227C9.59125 7.3456 9.84458 6.33893 10.3512 5.47227C10.8579 4.59227 11.5513 3.91893 12.4313 3.45227C13.3113 2.9856 14.2979 2.75226 15.3913 2.75226C16.4846 2.75226 17.4713 2.9856 18.3513 3.45227C19.2313 3.91893 19.9246 4.59227 20.4313 5.47227C20.9379 6.33893 21.1913 7.3456 21.1913 8.49227C21.1913 9.63893 20.9313 10.6523 20.4113 11.5323C19.9046 12.3989 19.2046 13.0656 18.3113 13.5323C17.4313 13.9989 16.4446 14.2323 15.3513 14.2323ZM15.3513 11.2723C16.0046 11.2723 16.5579 11.0323 17.0113 10.5523C17.4779 10.0723 17.7113 9.3856 17.7113 8.49227C17.7113 7.59893 17.4846 6.91227 17.0313 6.43227C16.5913 5.95227 16.0446 5.71227 15.3913 5.71227C14.7246 5.71227 14.1713 5.95227 13.7313 6.43227C13.2913 6.89893 13.0713 7.5856 13.0713 8.49227C13.0713 9.3856 13.2846 10.0723 13.7113 10.5523C14.1513 11.0323 14.6979 11.2723 15.3513 11.2723ZM27.2456 2.75226C28.0323 2.75226 28.719 2.91226 29.3056 3.23226C29.9056 3.55227 30.3656 3.97227 30.6856 4.49226V2.91227H34.1056V14.0523C34.1056 15.0789 33.899 16.0056 33.4856 16.8323C33.0856 17.6723 32.4656 18.3389 31.6256 18.8323C30.799 19.3256 29.7656 19.5723 28.5256 19.5723C26.8723 19.5723 25.5323 19.1789 24.5056 18.3923C23.479 17.6189 22.8923 16.5656 22.7456 15.2323H26.1256C26.2323 15.6589 26.4856 15.9923 26.8856 16.2323C27.2856 16.4856 27.779 16.6123 28.3656 16.6123C29.0723 16.6123 29.6323 16.4056 30.0456 15.9923C30.4723 15.5923 30.6856 14.9456 30.6856 14.0523V12.4723C30.3523 12.9923 29.8923 13.4189 29.3056 13.7523C28.719 14.0723 28.0323 14.2323 27.2456 14.2323C26.3256 14.2323 25.4923 13.9989 24.7456 13.5323C23.999 13.0523 23.4056 12.3789 22.9656 11.5123C22.539 10.6323 22.3256 9.61893 22.3256 8.47227C22.3256 7.3256 22.539 6.31893 22.9656 5.45227C23.4056 4.5856 23.999 3.91893 24.7456 3.45227C25.4923 2.9856 26.3256 2.75226 27.2456 2.75226ZM30.6856 8.49227C30.6856 7.63893 30.4456 6.9656 29.9656 6.47227C29.499 5.97893 28.9256 5.73227 28.2456 5.73227C27.5656 5.73227 26.9856 5.97893 26.5056 6.47227C26.039 6.95227 25.8056 7.61893 25.8056 8.47227C25.8056 9.3256 26.039 10.0056 26.5056 10.5123C26.9856 11.0056 27.5656 11.2523 28.2456 11.2523C28.9256 11.2523 29.499 11.0056 29.9656 10.5123C30.4456 10.0189 30.6856 9.3456 30.6856 8.49227ZM41.6598 14.2323C40.5665 14.2323 39.5798 13.9989 38.6998 13.5323C37.8332 13.0656 37.1465 12.3989 36.6398 11.5323C36.1465 10.6656 35.8998 9.65227 35.8998 8.49227C35.8998 7.3456 36.1532 6.33893 36.6598 5.47227C37.1665 4.59227 37.8598 3.91893 38.7398 3.45227C39.6198 2.9856 40.6065 2.75226 41.6998 2.75226C42.7932 2.75226 43.7798 2.9856 44.6598 3.45227C45.5398 3.91893 46.2332 4.59227 46.7398 5.47227C47.2465 6.33893 47.4998 7.3456 47.4998 8.49227C47.4998 9.63893 47.2398 10.6523 46.7198 11.5323C46.2132 12.3989 45.5132 13.0656 44.6198 13.5323C43.7398 13.9989 42.7532 14.2323 41.6598 14.2323ZM41.6598 11.2723C42.3132 11.2723 42.8665 11.0323 43.3198 10.5523C43.7865 10.0723 44.0198 9.3856 44.0198 8.49227C44.0198 7.59893 43.7932 6.91227 43.3398 6.43227C42.8998 5.95227 42.3532 5.71227 41.6998 5.71227C41.0332 5.71227 40.4798 5.95227 40.0398 6.43227C39.5998 6.89893 39.3798 7.5856 39.3798 8.49227C39.3798 9.3856 39.5932 10.0723 40.0198 10.5523C40.4598 11.0323 41.0065 11.2723 41.6598 11.2723Z" fill="#DC4A2D"/>
</svg>
