<svg width="24" height="25" viewBox="0 0 24 25" fill="none" xmlns="http://www.w3.org/2000/svg">
<path d="M3 8.04475C3 6.36459 3 5.52451 3.32698 4.88278C3.6146 4.31829 4.07354 3.85935 4.63803 3.57173C5.27976 3.24475 6.11984 3.24475 7.8 3.24475H16.2C17.8802 3.24475 18.7202 3.24475 19.362 3.57173C19.9265 3.85935 20.3854 4.31829 20.673 4.88278C21 5.52451 21 6.36459 21 8.04475V13.4448C21 15.1249 21 15.965 20.673 16.6067C20.3854 17.1712 19.9265 17.6302 19.362 17.9178C18.7202 18.2448 17.8802 18.2448 16.2 18.2448H9.68375C9.0597 18.2448 8.74767 18.2448 8.44921 18.306C8.18443 18.3603 7.9282 18.4502 7.68749 18.5732C7.41617 18.7118 7.17252 18.9067 6.68521 19.2966L4.29976 21.2049C3.88367 21.5378 3.67563 21.7043 3.50054 21.7044C3.34827 21.7046 3.20422 21.6354 3.10923 21.5164C3 21.3795 3 21.1131 3 20.5803V8.04475Z" stroke="#B0B0B0" stroke-width="2" stroke-linecap="round" stroke-linejoin="round"/>
</svg>
