<svg width="20" height="21" viewBox="0 0 20 21" fill="none" xmlns="http://www.w3.org/2000/svg">
<path d="M18.3334 18.0302V16.3635C18.3334 14.8103 17.271 13.5052 15.8334 13.1352M12.9167 3.27245C14.1383 3.76694 15 4.96458 15 6.36348C15 7.76239 14.1383 8.96003 12.9167 9.45452M14.1667 18.0302C14.1667 16.477 14.1667 15.7004 13.913 15.0879C13.5746 14.2711 12.9257 13.6222 12.109 13.2839C11.4964 13.0302 10.7198 13.0302 9.16669 13.0302H6.66669C5.11355 13.0302 4.33698 13.0302 3.72441 13.2839C2.90765 13.6222 2.25874 14.2711 1.92042 15.0879C1.66669 15.7004 1.66669 16.477 1.66669 18.0302M11.25 6.36348C11.25 8.20443 9.75764 9.69682 7.91669 9.69682C6.07574 9.69682 4.58335 8.20443 4.58335 6.36348C4.58335 4.52254 6.07574 3.03015 7.91669 3.03015C9.75764 3.03015 11.25 4.52254 11.25 6.36348Z" stroke="#4F4F4F" stroke-width="1.6" stroke-linecap="round" stroke-linejoin="round"/>
</svg>
